<?xml version="1.0" encoding="UTF-8" standalone="yes"?>
<svg xmlns="http://www.w3.org/2000/svg" width="100%" height="100%" viewBox="0 0 136.942 21.045" fill="#0D131A">
  <path d="M9.41 16.45L0 16.45L0 1.56L8.58 1.56Q11.57 1.56 13.12 2.56Q14.67 3.57 14.67 5.54L14.67 5.54Q14.67 6.81 14.05 7.53Q13.43 8.26 12.29 8.60Q11.16 8.95 9.61 9.04L9.61 9.04L9.71 8.88Q10.83 8.90 11.83 9.04Q12.83 9.18 13.59 9.55Q14.35 9.91 14.79 10.57Q15.23 11.22 15.23 12.28L15.23 12.28Q15.23 13.66 14.49 14.57Q13.75 15.48 12.44 15.94Q11.13 16.40 9.41 16.45L9.41 16.45ZM3.06 10.33L3.06 13.92L9.09 13.92Q10.53 13.92 11.32 13.44Q12.10 12.97 12.10 11.94L12.10 11.94Q12.10 11.18 11.64 10.83Q11.18 10.49 10.42 10.41Q9.66 10.33 8.79 10.33L8.79 10.33L3.06 10.33ZM3.06 4.09L3.06 7.87L8.46 7.87Q9.91 7.87 10.70 7.44Q11.48 7.02 11.48 5.98L11.48 5.98Q11.48 4.95 10.70 4.52Q9.91 4.09 8.63 4.09L8.63 4.09L3.06 4.09ZM17.50 0L20.98 0L20.98 2.62L17.50 2.62L17.50 0ZM17.73 16.45L17.73 5.01L20.72 5.01L20.72 16.45L17.73 16.45ZM30.45 16.72L30.45 16.72Q28.29 16.72 26.65 16.03Q25.00 15.34 24.08 14.02Q23.16 12.70 23.16 10.76L23.16 10.76Q23.16 8.83 24.08 7.49Q25.00 6.14 26.65 5.45Q28.29 4.76 30.45 4.76L30.45 4.76Q32.61 4.76 34.24 5.45Q35.86 6.14 36.78 7.49Q37.70 8.83 37.70 10.76L37.70 10.76Q37.70 12.70 36.78 14.02Q35.86 15.34 34.24 16.03Q32.61 16.72 30.45 16.72ZM30.45 14.42L30.45 14.42Q31.65 14.42 32.60 14.00Q33.56 13.57 34.11 12.75Q34.66 11.94 34.66 10.76L34.66 10.76Q34.66 9.59 34.11 8.75Q33.56 7.91 32.61 7.47Q31.67 7.04 30.45 7.04L30.45 7.04Q29.26 7.04 28.29 7.47Q27.32 7.91 26.76 8.74Q26.20 9.57 26.20 10.76L26.20 10.76Q26.20 11.94 26.75 12.75Q27.30 13.57 28.27 14.00Q29.23 14.42 30.45 14.42ZM38.94 7.34L38.94 5.01L47.82 5.01L47.82 7.34L38.94 7.34ZM41.88 16.45L41.88 1.89L44.87 1.89L44.87 16.45L41.88 16.45ZM59.98 12.65L59.98 12.65L62.88 12.65Q62.70 13.82 61.90 14.74Q61.11 15.66 59.75 16.19Q58.40 16.72 56.44 16.72L56.44 16.72Q54.26 16.72 52.58 16.02Q50.90 15.32 49.96 13.98Q49.01 12.65 49.01 10.76L49.01 10.76Q49.01 8.88 49.93 7.53Q50.85 6.19 52.50 5.47Q54.14 4.76 56.35 4.76L56.35 4.76Q58.60 4.76 60.10 5.47Q61.59 6.19 62.32 7.62Q63.04 9.06 62.93 11.29L62.93 11.29L52.03 11.29Q52.14 12.17 52.68 12.88Q53.22 13.59 54.15 14.01Q55.08 14.42 56.37 14.42L56.37 14.42Q57.80 14.42 58.75 13.93Q59.71 13.43 59.98 12.65ZM56.21 7.04L56.21 7.04Q54.56 7.04 53.52 7.76Q52.49 8.49 52.19 9.55L52.19 9.55L59.96 9.55Q59.85 8.39 58.87 7.72Q57.89 7.04 56.21 7.04ZM75.99 11.94L78.73 11.94Q78.61 13.43 77.77 14.51Q76.94 15.59 75.46 16.16Q73.99 16.72 71.97 16.72L71.97 16.72Q69.85 16.72 68.18 16.04Q66.52 15.36 65.56 14.04Q64.61 12.72 64.61 10.76L64.61 10.76Q64.61 8.81 65.56 7.47Q66.52 6.14 68.18 5.45Q69.85 4.76 71.97 4.76L71.97 4.76Q73.99 4.76 75.44 5.32Q76.89 5.89 77.73 6.95Q78.57 8.00 78.71 9.50L78.71 9.50L75.97 9.50Q75.58 8.35 74.52 7.71Q73.46 7.06 71.97 7.06L71.97 7.06Q70.77 7.06 69.79 7.47Q68.82 7.89 68.23 8.71Q67.64 9.52 67.64 10.76L67.64 10.76Q67.64 11.98 68.22 12.80Q68.79 13.62 69.78 14.02Q70.77 14.42 71.97 14.42L71.97 14.42Q73.58 14.42 74.60 13.78Q75.62 13.13 75.99 11.94L75.99 11.94ZM94.37 16.45L91.38 16.45L91.38 10.17Q91.38 9.22 91.06 8.60Q90.73 7.98 90.03 7.66Q89.33 7.34 88.16 7.34L88.16 7.34Q87.03 7.34 86.11 7.76Q85.19 8.19 84.62 8.87Q84.04 9.55 83.97 10.30L83.97 10.30L83.95 9.04Q84.06 8.28 84.48 7.52Q84.89 6.76 85.58 6.14Q86.27 5.52 87.25 5.14Q88.23 4.76 89.45 4.76L89.45 4.76Q90.50 4.76 91.40 5.03Q92.30 5.29 92.97 5.84Q93.63 6.39 94.00 7.21Q94.37 8.03 94.37 9.13L94.37 9.13L94.37 16.45ZM84.13 16.45L81.14 16.45L81.14 0.41L84.13 0.41L84.13 16.45ZM105.41 16.72L105.41 16.72Q103.89 16.72 102.82 16.18Q101.75 15.64 101.09 14.75Q100.42 13.87 100.10 12.81Q99.77 11.75 99.77 10.74L99.77 10.74Q99.77 9.48 100.08 8.39Q100.40 7.31 101.06 6.50Q101.73 5.68 102.80 5.22Q103.87 4.76 105.41 4.76L105.41 4.76Q107.13 4.76 108.51 5.52Q109.89 6.28 110.71 7.62Q111.53 8.97 111.53 10.74L111.53 10.74Q111.53 12.56 110.70 13.90Q109.87 15.25 108.49 15.98Q107.11 16.72 105.41 16.72ZM104.44 14.40L104.44 14.40Q105.66 14.40 106.57 13.94Q107.48 13.48 107.97 12.66Q108.47 11.85 108.47 10.74L108.47 10.74Q108.47 9.09 107.42 8.07Q106.38 7.06 104.44 7.06L104.44 7.06Q103.22 7.06 102.22 7.50Q101.22 7.94 100.65 8.75Q100.07 9.57 100.07 10.74L100.07 10.74Q100.07 11.85 100.60 12.66Q101.13 13.48 102.12 13.94Q103.11 14.40 104.44 14.40ZM97.08 21.05L97.08 5.01L99.94 5.01L100.07 8.05L100.07 21.05L97.08 21.05ZM113.73 16.45L113.73 5.01L116.73 5.01L116.73 16.45L113.73 16.45ZM121.12 4.76L121.12 7.47Q119.83 7.47 118.89 7.97Q117.94 8.46 117.37 9.18Q116.79 9.89 116.56 10.56L116.56 10.56L116.54 9.29Q116.56 9.02 116.73 8.48Q116.89 7.94 117.21 7.30Q117.53 6.67 118.06 6.08Q118.59 5.50 119.35 5.13Q120.11 4.76 121.12 4.76L121.12 4.76ZM129.70 16.72L129.70 16.72Q127.53 16.72 125.89 16.03Q124.25 15.34 123.33 14.02Q122.41 12.70 122.41 10.76L122.41 10.76Q122.41 8.83 123.33 7.49Q124.25 6.14 125.89 5.45Q127.53 4.76 129.70 4.76L129.70 4.76Q131.86 4.76 133.48 5.45Q135.10 6.14 136.02 7.49Q136.94 8.83 136.94 10.76L136.94 10.76Q136.94 12.70 136.02 14.02Q135.10 15.34 133.48 16.03Q131.86 16.72 129.70 16.72ZM129.70 14.42L129.70 14.42Q130.89 14.42 131.85 14.00Q132.80 13.57 133.35 12.75Q133.91 11.94 133.91 10.76L133.91 10.76Q133.91 9.59 133.35 8.75Q132.80 7.91 131.86 7.47Q130.92 7.04 129.70 7.04L129.70 7.04Q128.50 7.04 127.53 7.47Q126.57 7.91 126.01 8.74Q125.44 9.57 125.44 10.76L125.44 10.76Q125.44 11.94 125.99 12.75Q126.55 13.57 127.51 14.00Q128.48 14.42 129.70 14.42Z" preserveAspectRatio="none"/>
</svg>